{"title":"Scooby Doo Where Are You! 1969 S01-S02 1080p AMZN WEBRip x264-Ca","magnet":"magnet:?xt=urn:btih:1401579e7d5a3fbda14d2d5e34880583714e06ac&dn=Scooby+Doo+Where+Are+You%21+1969+S01-S02+1080p+AMZN+WEBRip+x264-Ca&tr=udp%3A%2F%2Ftracker.leechers-paradise.org%3A6969&tr=udp%3A%2F%2Fzer0day.ch%3A1337&tr=udp%3A%2F%2Fopen.demonii.com%3A1337&tr=udp%3A%2F%2Ftracker.coppersurfer.tk%3A6969&tr=udp%3A%2F%2Fexodus.desync.com%3A6969","uploader":"__rick_","categoryP":"video","categoryS":"hd___tv_shows","size":"59489091498","seeders":"2","leechers":"15","description":"Scooby Doo Where Are You! 1969 S01-S02 1080p AMZN WEBRip x264-CasStudio [RiCK]\r\n\r\nScooby-Doo and the Mystery, Inc. gang are launched into the 21st century, with new mysteries to solve.\r\n\r\nScooby.Doo.Where.Are.You!.S01E07.1080p.AMZN.WEBRip.DD2.0.x264-CasStudio.mkv\r\nFile size                                : 2.31 GiB\r\nDuration                                 : 21 min 55 s\r\nOverall bit rate mode                    : Variable\r\nOverall bit rate                         : 15.1 Mb/s\r\n\r\nVideo\r\nID                                       : 1\r\nFormat                                   : AVC\r\nFormat settings, CABAC                   : Yes\r\nFormat settings, ReFrames                : 4 frames\r\nDuration                                 : 21 min 55 s\r\nBit rate mode                            : Variable\r\nBit rate                                 : 14.8 Mb/s\r\nMaximum bit rate                         : 15.0 Mb/s\r\nWidth                                    : 1 440 pixels\r\nHeight                                   : 1 080 pixels\r\nDisplay aspect ratio                     : 4:3\r\nFrame rate mode                          : Constant\r\nStream size                              : 2.27 GiB (98%)\r\nLanguage                                 : English\r\nDefault                                  : Yes\r\nForced                                   : No\r\nColor range                              : Limited\r\n\r\nAudio\r\nID                                       : 2\r\nFormat                                   : E-AC-3\r\nDuration                                 : 21 min 55 s\r\nBit rate mode                            : Constant\r\nBit rate                                 : 224 kb/s\r\nChannel(s)                               : 2 channels\r\nChannel positions                        : Front: L R\r\nSampling rate                            : 48.0 kHz\r\nCompression mode                         : Lossy\r\nStream size                              : 35.1 MiB (1%)\r\nLanguage                                 : English\r\nDefault                                  : Yes\r\nForced                                   : No\r\n\r\nText\r\nID                                       : 3\r\nFormat                                   : UTF-8\r\nDuration                                 : 21 min 53 s\r\nBit rate                                 : 71 b/s\r\nCount of elements                        : 430\r\nStream size                              : 11.5 KiB (0%)\r\nLanguage                                 : English\r\nDefault                                  : Yes\r\nForced                                   : No\r\n\r\nScreenshots:\r\n <a href=\"\nhttps://extraimage.net/image/THI3\" rel=\"nofollow\" target=\"_NEW\">\nhttps://extraimage.net/image/THI3</a> <a href=\"\nhttps://extraimage.net/image/THI9\" rel=\"nofollow\" target=\"_NEW\">\nhttps://extraimage.net/image/THI9</a> <a href=\"\nhttps://extraimage.net/image/THIM\" rel=\"nofollow\" target=\"_NEW\">\nhttps://extraimage.net/image/THIM</a>","last_updated":"2017-11-07T12:08:52.830Z","parsed":{"xt":"urn:btih:1401579e7d5a3fbda14d2d5e34880583714e06ac","dn":"Scooby Doo Where Are You! 1969 S01-S02 1080p AMZN WEBRip x264-Ca","tr":["udp://exodus.desync.com:6969","udp://open.demonii.com:1337","udp://tracker.coppersurfer.tk:6969","udp://tracker.leechers-paradise.org:6969","udp://zer0day.ch:1337"],"infoHash":"1401579e7d5a3fbda14d2d5e34880583714e06ac","infoHashBuffer":{"type":"Buffer","data":[20,1,87,158,125,90,63,189,161,77,45,94,52,136,5,131,113,78,6,172]},"name":"Scooby Doo Where Are You! 1969 S01-S02 1080p AMZN WEBRip x264-Ca","announce":["udp://exodus.desync.com:6969","udp://open.demonii.com:1337","udp://tracker.coppersurfer.tk:6969","udp://tracker.leechers-paradise.org:6969","udp://zer0day.ch:1337"],"urlList":[]}}